<?xml version="1.0" encoding="utf-8"?>
<!-- Generator: Adobe Illustrator 26.5.0, SVG Export Plug-In . SVG Version: 6.00 Build 0)  -->
<svg version="1.1" id="Layer_1" xmlns="http://www.w3.org/2000/svg" xmlns:xlink="http://www.w3.org/1999/xlink" x="0px" y="0px"
	 viewBox="0 0 20 16" style="enable-background:new 0 0 20 16;" xml:space="preserve">
<style type="text/css">
	.st0{fill:#DDDBDB;}
</style>
<path class="st0" d="M19.3,0C19.7,0,20,0.3,20,0.7c0,0.2-0.1,0.5-0.5,0.7c-1.8,0.9-3.9,4.2-3.9,6.2c3-0.1,4.3,2.6,4.3,4.3
	c0,2-1.7,4.1-4.3,4.1c-3.2,0-4.8-2.5-4.8-5.3C10.8,4.7,17.7,0,19.3,0z M8.5,0c0.4,0,0.7,0.3,0.7,0.7c0,0.2-0.1,0.5-0.5,0.7
	C6.9,2.3,4.8,5.6,4.8,7.6c3-0.1,4.3,2.6,4.3,4.3c0,2-1.7,4.1-4.3,4.1C1.6,16,0,13.5,0,10.7C0,4.7,6.8,0,8.5,0z"/>
</svg>
